G04 Layer: BottomSilkLayer*
G04 EasyEDA v6.2.46, 2019-12-15T16:49:01--8:00*
G04 3ed96cd0468347919694e972acbd498c,95dd31e7bbc04d03a1fa04b442bf807f,10*
G04 Gerber Generator version 0.2*
G04 Scale: 100 percent, Rotated: No, Reflected: No *
G04 Dimensions in millimeters *
G04 leading zeros omitted , absolute positions ,3 integer and 3 decimal *
%FSLAX33Y33*%
%MOMM*%
G90*
G71D02*


%LPD*%

%LPD*%
G36*
G01X33300Y51849D02*
G01X33188Y51849D01*
G01X33075Y51847D01*
G01X33018Y51845D01*
G01X32963Y51843D01*
G01X32906Y51841D01*
G01X32850Y51838D01*
G01X32739Y51831D01*
G01X32571Y51816D01*
G01X32461Y51804D01*
G01X32405Y51797D01*
G01X32350Y51790D01*
G01X32240Y51774D01*
G01X32185Y51765D01*
G01X32131Y51756D01*
G01X32076Y51747D01*
G01X31966Y51727D01*
G01X31912Y51715D01*
G01X31804Y51693D01*
G01X31750Y51680D01*
G01X31642Y51655D01*
G01X31536Y51628D01*
G01X31429Y51598D01*
G01X31323Y51568D01*
G01X31218Y51535D01*
G01X31113Y51501D01*
G01X31009Y51465D01*
G01X30957Y51446D01*
G01X30906Y51427D01*
G01X30854Y51408D01*
G01X30752Y51368D01*
G01X30700Y51347D01*
G01X30650Y51326D01*
G01X30599Y51305D01*
G01X30549Y51283D01*
G01X30498Y51261D01*
G01X30449Y51238D01*
G01X30398Y51215D01*
G01X30348Y51192D01*
G01X30201Y51120D01*
G01X30152Y51095D01*
G01X30054Y51043D01*
G01X29958Y50991D01*
G01X29910Y50964D01*
G01X29815Y50909D01*
G01X29767Y50881D01*
G01X29721Y50853D01*
G01X29673Y50824D01*
G01X29627Y50795D01*
G01X29580Y50766D01*
G01X29488Y50706D01*
G01X29443Y50676D01*
G01X29397Y50645D01*
G01X29352Y50614D01*
G01X29217Y50518D01*
G01X29173Y50485D01*
G01X29129Y50453D01*
G01X29085Y50419D01*
G01X29042Y50385D01*
G01X28998Y50351D01*
G01X28956Y50317D01*
G01X28912Y50282D01*
G01X28870Y50248D01*
G01X28827Y50212D01*
G01X28786Y50177D01*
G01X28703Y50105D01*
G01X28661Y50068D01*
G01X28620Y50031D01*
G01X28580Y49994D01*
G01X28539Y49956D01*
G01X28499Y49918D01*
G01X28460Y49880D01*
G01X28420Y49841D01*
G01X28381Y49803D01*
G01X28342Y49764D01*
G01X28265Y49684D01*
G01X28189Y49604D01*
G01X28151Y49563D01*
G01X28114Y49522D01*
G01X28078Y49481D01*
G01X28041Y49440D01*
G01X27969Y49356D01*
G01X27898Y49270D01*
G01X27829Y49184D01*
G01X27794Y49140D01*
G01X27760Y49097D01*
G01X27693Y49008D01*
G01X27660Y48964D01*
G01X27595Y48873D01*
G01X27564Y48828D01*
G01X27532Y48782D01*
G01X27470Y48690D01*
G01X27409Y48596D01*
G01X27349Y48502D01*
G01X27320Y48455D01*
G01X27291Y48406D01*
G01X27263Y48359D01*
G01X27235Y48310D01*
G01X27207Y48262D01*
G01X27180Y48213D01*
G01X27126Y48114D01*
G01X27100Y48065D01*
G01X27074Y48015D01*
G01X27024Y47915D01*
G01X26999Y47864D01*
G01X26951Y47762D01*
G01X26928Y47711D01*
G01X26904Y47660D01*
G01X26882Y47608D01*
G01X26859Y47556D01*
G01X26816Y47452D01*
G01X26795Y47399D01*
G01X26774Y47347D01*
G01X26754Y47294D01*
G01X26734Y47240D01*
G01X26715Y47187D01*
G01X26677Y47079D01*
G01X26659Y47026D01*
G01X26641Y46971D01*
G01X26607Y46863D01*
G01X26575Y46753D01*
G01X26544Y46642D01*
G01X26529Y46587D01*
G01X26501Y46475D01*
G01X26488Y46419D01*
G01X26475Y46362D01*
G01X26451Y46249D01*
G01X26439Y46192D01*
G01X26428Y46135D01*
G01X26418Y46078D01*
G01X26407Y46021D01*
G01X26398Y45963D01*
G01X26388Y45905D01*
G01X26379Y45848D01*
G01X26371Y45790D01*
G01X26356Y45673D01*
G01X26343Y45556D01*
G01X26332Y45438D01*
G01X26323Y45319D01*
G01X26318Y45260D01*
G01X26312Y45141D01*
G01X26310Y45081D01*
G01X26308Y45023D01*
G01X26305Y44852D01*
G01X26305Y44738D01*
G01X26307Y44625D01*
G01X26309Y44569D01*
G01X26313Y44458D01*
G01X26319Y44346D01*
G01X26323Y44292D01*
G01X26327Y44236D01*
G01X26331Y44181D01*
G01X26336Y44127D01*
G01X26341Y44072D01*
G01X26346Y44018D01*
G01X26353Y43964D01*
G01X26366Y43856D01*
G01X26373Y43802D01*
G01X26388Y43696D01*
G01X26405Y43590D01*
G01X26414Y43537D01*
G01X26424Y43485D01*
G01X26434Y43432D01*
G01X26444Y43381D01*
G01X26465Y43277D01*
G01X26477Y43225D01*
G01X26489Y43174D01*
G01X26500Y43123D01*
G01X26526Y43022D01*
G01X26539Y42971D01*
G01X26553Y42920D01*
G01X26566Y42871D01*
G01X26581Y42821D01*
G01X26610Y42721D01*
G01X26625Y42672D01*
G01X26657Y42574D01*
G01X26673Y42526D01*
G01X26690Y42477D01*
G01X26724Y42380D01*
G01X26742Y42333D01*
G01X26760Y42285D01*
G01X26778Y42238D01*
G01X26797Y42190D01*
G01X26816Y42144D01*
G01X26835Y42096D01*
G01X26855Y42050D01*
G01X26875Y42003D01*
G01X26896Y41958D01*
G01X26916Y41912D01*
G01X26937Y41866D01*
G01X26958Y41821D01*
G01X26980Y41775D01*
G01X27046Y41640D01*
G01X27092Y41552D01*
G01X27116Y41508D01*
G01X27139Y41464D01*
G01X27164Y41421D01*
G01X27188Y41377D01*
G01X27213Y41334D01*
G01X27237Y41291D01*
G01X27263Y41249D01*
G01X27288Y41206D01*
G01X27366Y41080D01*
G01X27393Y41039D01*
G01X27447Y40956D01*
G01X27475Y40916D01*
G01X27503Y40875D01*
G01X27559Y40795D01*
G01X27588Y40755D01*
G01X27616Y40715D01*
G01X27705Y40598D01*
G01X27765Y40521D01*
G01X27795Y40483D01*
G01X27857Y40407D01*
G01X27888Y40370D01*
G01X27920Y40332D01*
G01X27952Y40296D01*
G01X28016Y40222D01*
G01X28081Y40150D01*
G01X28114Y40114D01*
G01X28180Y40044D01*
G01X28248Y39974D01*
G01X28316Y39905D01*
G01X28351Y39871D01*
G01X28421Y39804D01*
G01X28456Y39771D01*
G01X28527Y39705D01*
G01X28563Y39672D01*
G01X28599Y39640D01*
G01X28636Y39608D01*
G01X28709Y39545D01*
G01X28783Y39483D01*
G01X28858Y39422D01*
G01X28934Y39362D01*
G01X28972Y39333D01*
G01X29011Y39303D01*
G01X29088Y39246D01*
G01X29127Y39217D01*
G01X29205Y39161D01*
G01X29245Y39133D01*
G01X29285Y39106D01*
G01X29324Y39079D01*
G01X29364Y39052D01*
G01X29405Y39026D01*
G01X29445Y38999D01*
G01X29526Y38947D01*
G01X29609Y38897D01*
G01X29691Y38847D01*
G01X29774Y38799D01*
G01X29817Y38775D01*
G01X29901Y38728D01*
G01X29943Y38705D01*
G01X30071Y38638D01*
G01X30114Y38616D01*
G01X30201Y38573D01*
G01X30244Y38553D01*
G01X30287Y38532D01*
G01X30331Y38511D01*
G01X30375Y38492D01*
G01X30463Y38452D01*
G01X30507Y38433D01*
G01X30552Y38414D01*
G01X30596Y38396D01*
G01X30685Y38359D01*
G01X30730Y38342D01*
G01X30775Y38324D01*
G01X30820Y38307D01*
G01X30865Y38291D01*
G01X30911Y38274D01*
G01X30956Y38257D01*
G01X31002Y38242D01*
G01X31047Y38226D01*
G01X31185Y38181D01*
G01X31323Y38139D01*
G01X31370Y38125D01*
G01X31416Y38112D01*
G01X31462Y38100D01*
G01X31509Y38087D01*
G01X31555Y38075D01*
G01X31649Y38051D01*
G01X31743Y38029D01*
G01X31790Y38019D01*
G01X31837Y38008D01*
G01X31885Y37998D01*
G01X31932Y37988D01*
G01X31980Y37979D01*
G01X32027Y37970D01*
G01X32075Y37961D01*
G01X32122Y37953D01*
G01X32170Y37945D01*
G01X32217Y37937D01*
G01X32409Y37909D01*
G01X32505Y37897D01*
G01X32553Y37892D01*
G01X32650Y37882D01*
G01X32698Y37877D01*
G01X32746Y37873D01*
G01X32843Y37866D01*
G01X32891Y37862D01*
G01X32988Y37857D01*
G01X33037Y37855D01*
G01X33085Y37853D01*
G01X33183Y37851D01*
G01X33231Y37850D01*
G01X33280Y37849D01*
G01X33377Y37849D01*
G01X33426Y37850D01*
G01X33523Y37852D01*
G01X33572Y37853D01*
G01X33621Y37855D01*
G01X33767Y37863D01*
G01X33865Y37870D01*
G01X33962Y37878D01*
G01X34060Y37888D01*
G01X34157Y37899D01*
G01X34206Y37905D01*
G01X34303Y37918D01*
G01X34352Y37925D01*
G01X34450Y37941D01*
G01X34498Y37949D01*
G01X34595Y37966D01*
G01X34644Y37976D01*
G01X34692Y37985D01*
G01X34741Y37995D01*
G01X34789Y38006D01*
G01X34838Y38017D01*
G01X34934Y38039D01*
G01X34982Y38051D01*
G01X35031Y38063D01*
G01X35175Y38102D01*
G01X35223Y38116D01*
G01X35271Y38129D01*
G01X35463Y38189D01*
G01X35511Y38205D01*
G01X35558Y38221D01*
G01X35606Y38238D01*
G01X35653Y38255D01*
G01X35701Y38273D01*
G01X35748Y38291D01*
G01X35796Y38309D01*
G01X35843Y38327D01*
G01X35937Y38365D01*
G01X36031Y38405D01*
G01X36171Y38467D01*
G01X36218Y38489D01*
G01X36264Y38511D01*
G01X36311Y38533D01*
G01X36403Y38579D01*
G01X36450Y38603D01*
G01X36495Y38627D01*
G01X36541Y38651D01*
G01X36679Y38726D01*
G01X36724Y38752D01*
G01X36770Y38778D01*
G01X36905Y38859D01*
G01X36995Y38915D01*
G01X37084Y38973D01*
G01X37128Y39003D01*
G01X37217Y39063D01*
G01X37261Y39093D01*
G01X37304Y39124D01*
G01X37349Y39156D01*
G01X37392Y39188D01*
G01X37436Y39220D01*
G01X37522Y39286D01*
G01X37566Y39319D01*
G01X37608Y39353D01*
G01X37694Y39422D01*
G01X37778Y39492D01*
G01X37863Y39565D01*
G01X37947Y39639D01*
G01X37988Y39676D01*
G01X38071Y39753D01*
G01X38153Y39831D01*
G01X38193Y39870D01*
G01X38234Y39911D01*
G01X38314Y39992D01*
G01X38395Y40075D01*
G01X38474Y40160D01*
G01X38552Y40246D01*
G01X38590Y40290D01*
G01X38628Y40333D01*
G01X38739Y40465D01*
G01X38775Y40509D01*
G01X38810Y40553D01*
G01X38880Y40643D01*
G01X38914Y40687D01*
G01X38948Y40732D01*
G01X39014Y40823D01*
G01X39047Y40868D01*
G01X39111Y40960D01*
G01X39142Y41006D01*
G01X39173Y41051D01*
G01X39203Y41098D01*
G01X39233Y41144D01*
G01X39263Y41191D01*
G01X39321Y41284D01*
G01X39377Y41378D01*
G01X39431Y41472D01*
G01X39457Y41519D01*
G01X39484Y41567D01*
G01X39535Y41663D01*
G01X39559Y41710D01*
G01X39584Y41758D01*
G01X39608Y41806D01*
G01X39655Y41903D01*
G01X39677Y41951D01*
G01X39700Y42000D01*
G01X39722Y42048D01*
G01X39785Y42195D01*
G01X39825Y42293D01*
G01X39844Y42342D01*
G01X39864Y42391D01*
G01X39882Y42440D01*
G01X39900Y42490D01*
G01X39918Y42539D01*
G01X39935Y42589D01*
G01X39953Y42638D01*
G01X40001Y42788D01*
G01X40046Y42938D01*
G01X40074Y43038D01*
G01X40100Y43139D01*
G01X40124Y43239D01*
G01X40148Y43341D01*
G01X40158Y43391D01*
G01X40169Y43442D01*
G01X40179Y43492D01*
G01X40189Y43543D01*
G01X40207Y43644D01*
G01X40216Y43695D01*
G01X40232Y43797D01*
G01X40246Y43898D01*
G01X40252Y43949D01*
G01X40259Y44000D01*
G01X40265Y44051D01*
G01X40275Y44153D01*
G01X40279Y44204D01*
G01X40284Y44255D01*
G01X40291Y44357D01*
G01X40294Y44408D01*
G01X40299Y44509D01*
G01X40301Y44561D01*
G01X40303Y44612D01*
G01X40305Y44713D01*
G01X40305Y44866D01*
G01X40303Y44968D01*
G01X40300Y45069D01*
G01X40295Y45171D01*
G01X40288Y45272D01*
G01X40280Y45374D01*
G01X40276Y45424D01*
G01X40271Y45475D01*
G01X40266Y45525D01*
G01X40260Y45576D01*
G01X40254Y45626D01*
G01X40241Y45727D01*
G01X40227Y45827D01*
G01X40211Y45927D01*
G01X40175Y46127D01*
G01X40165Y46176D01*
G01X40154Y46226D01*
G01X40144Y46276D01*
G01X40133Y46325D01*
G01X40109Y46424D01*
G01X40085Y46522D01*
G01X40072Y46571D01*
G01X40045Y46669D01*
G01X40017Y46766D01*
G01X39987Y46864D01*
G01X39972Y46912D01*
G01X39956Y46961D01*
G01X39940Y47008D01*
G01X39924Y47057D01*
G01X39907Y47104D01*
G01X39890Y47153D01*
G01X39872Y47200D01*
G01X39855Y47248D01*
G01X39837Y47295D01*
G01X39780Y47437D01*
G01X39721Y47577D01*
G01X39679Y47671D01*
G01X39637Y47763D01*
G01X39593Y47855D01*
G01X39570Y47901D01*
G01X39547Y47946D01*
G01X39524Y47992D01*
G01X39501Y48037D01*
G01X39477Y48082D01*
G01X39452Y48127D01*
G01X39428Y48172D01*
G01X39403Y48216D01*
G01X39378Y48261D01*
G01X39326Y48349D01*
G01X39300Y48394D01*
G01X39273Y48437D01*
G01X39247Y48481D01*
G01X39219Y48524D01*
G01X39192Y48568D01*
G01X39136Y48654D01*
G01X39107Y48696D01*
G01X39078Y48739D01*
G01X39049Y48781D01*
G01X39019Y48823D01*
G01X38990Y48866D01*
G01X38960Y48907D01*
G01X38930Y48949D01*
G01X38868Y49031D01*
G01X38836Y49072D01*
G01X38740Y49194D01*
G01X38641Y49314D01*
G01X38608Y49353D01*
G01X38573Y49392D01*
G01X38504Y49471D01*
G01X38470Y49509D01*
G01X38434Y49547D01*
G01X38399Y49585D01*
G01X38291Y49699D01*
G01X38217Y49773D01*
G01X38142Y49846D01*
G01X38104Y49882D01*
G01X38065Y49918D01*
G01X37988Y49989D01*
G01X37910Y50059D01*
G01X37870Y50094D01*
G01X37830Y50128D01*
G01X37748Y50197D01*
G01X37708Y50230D01*
G01X37666Y50263D01*
G01X37625Y50297D01*
G01X37499Y50394D01*
G01X37455Y50426D01*
G01X37413Y50458D01*
G01X37325Y50520D01*
G01X37282Y50551D01*
G01X37237Y50582D01*
G01X37148Y50642D01*
G01X37058Y50700D01*
G01X36920Y50787D01*
G01X36826Y50843D01*
G01X36732Y50897D01*
G01X36684Y50924D01*
G01X36636Y50950D01*
G01X36588Y50977D01*
G01X36540Y51003D01*
G01X36491Y51028D01*
G01X36442Y51054D01*
G01X36393Y51078D01*
G01X36293Y51127D01*
G01X36243Y51151D01*
G01X36192Y51174D01*
G01X36142Y51198D01*
G01X36091Y51221D01*
G01X36040Y51243D01*
G01X35884Y51309D01*
G01X35832Y51330D01*
G01X35779Y51351D01*
G01X35673Y51391D01*
G01X35619Y51411D01*
G01X35566Y51430D01*
G01X35512Y51449D01*
G01X35403Y51486D01*
G01X35348Y51504D01*
G01X35293Y51521D01*
G01X35238Y51539D01*
G01X35183Y51555D01*
G01X35127Y51572D01*
G01X35014Y51603D01*
G01X34958Y51618D01*
G01X34901Y51633D01*
G01X34786Y51662D01*
G01X34728Y51675D01*
G01X34671Y51689D01*
G01X34613Y51701D01*
G01X34556Y51713D01*
G01X34441Y51736D01*
G01X34383Y51746D01*
G01X34327Y51757D01*
G01X34212Y51775D01*
G01X34154Y51783D01*
G01X34040Y51799D01*
G01X33983Y51805D01*
G01X33926Y51812D01*
G01X33812Y51823D01*
G01X33755Y51828D01*
G01X33698Y51832D01*
G01X33584Y51839D01*
G01X33527Y51842D01*
G01X33471Y51844D01*
G01X33357Y51848D01*
G01X33300Y51849D01*
G37*

%LPC*%
G36*
G01X38118Y47853D02*
G01X38950Y48048D01*
G01X38340Y48013D01*
G01X38297Y48011D01*
G01X38250Y48008D01*
G01X38201Y48003D01*
G01X38149Y47999D01*
G01X38095Y47995D01*
G01X38038Y47990D01*
G01X37980Y47985D01*
G01X37920Y47979D01*
G01X37796Y47967D01*
G01X37732Y47960D01*
G01X37667Y47954D01*
G01X37602Y47947D01*
G01X37536Y47939D01*
G01X37470Y47932D01*
G01X37404Y47924D01*
G01X37338Y47917D01*
G01X37273Y47908D01*
G01X37208Y47900D01*
G01X37082Y47884D01*
G01X36962Y47868D01*
G01X36904Y47860D01*
G01X36764Y47839D01*
G01X36694Y47829D01*
G01X36624Y47818D01*
G01X36555Y47806D01*
G01X36486Y47795D01*
G01X36416Y47784D01*
G01X36348Y47771D01*
G01X36210Y47747D01*
G01X36006Y47708D01*
G01X35803Y47667D01*
G01X35735Y47653D01*
G01X35668Y47638D01*
G01X35601Y47624D01*
G01X35402Y47578D01*
G01X35269Y47547D01*
G01X35204Y47531D01*
G01X35138Y47514D01*
G01X35073Y47498D01*
G01X35007Y47481D01*
G01X34877Y47446D01*
G01X34748Y47411D01*
G01X34620Y47375D01*
G01X34492Y47337D01*
G01X34429Y47318D01*
G01X34365Y47299D01*
G01X34239Y47259D01*
G01X34177Y47239D01*
G01X34052Y47199D01*
G01X33866Y47136D01*
G01X33804Y47114D01*
G01X33743Y47093D01*
G01X33682Y47071D01*
G01X33560Y47026D01*
G01X33500Y47004D01*
G01X33440Y46981D01*
G01X33379Y46957D01*
G01X33319Y46934D01*
G01X33260Y46911D01*
G01X33141Y46863D01*
G01X33023Y46814D01*
G01X32964Y46789D01*
G01X32906Y46764D01*
G01X32848Y46740D01*
G01X32789Y46714D01*
G01X32732Y46688D01*
G01X32674Y46662D01*
G01X32560Y46610D01*
G01X32502Y46584D01*
G01X32446Y46557D01*
G01X32389Y46530D01*
G01X32333Y46502D01*
G01X32277Y46475D01*
G01X32221Y46447D01*
G01X32166Y46420D01*
G01X32110Y46391D01*
G01X32055Y46363D01*
G01X31999Y46334D01*
G01X31945Y46306D01*
G01X31890Y46276D01*
G01X31782Y46218D01*
G01X31674Y46158D01*
G01X31621Y46128D01*
G01X31514Y46067D01*
G01X31462Y46036D01*
G01X31409Y46005D01*
G01X31357Y45974D01*
G01X31305Y45942D01*
G01X31253Y45911D01*
G01X31150Y45847D01*
G01X30946Y45715D01*
G01X30896Y45682D01*
G01X30796Y45615D01*
G01X30747Y45581D01*
G01X30697Y45547D01*
G01X30649Y45513D01*
G01X30599Y45478D01*
G01X30551Y45444D01*
G01X30502Y45409D01*
G01X30455Y45374D01*
G01X30406Y45338D01*
G01X30359Y45302D01*
G01X30311Y45266D01*
G01X30217Y45194D01*
G01X30171Y45158D01*
G01X30124Y45121D01*
G01X29986Y45010D01*
G01X29941Y44972D01*
G01X29895Y44935D01*
G01X29806Y44858D01*
G01X29761Y44820D01*
G01X29673Y44743D01*
G01X29629Y44704D01*
G01X29586Y44664D01*
G01X29542Y44625D01*
G01X29457Y44546D01*
G01X29414Y44505D01*
G01X29330Y44425D01*
G01X29164Y44261D01*
G01X29124Y44219D01*
G01X29084Y44178D01*
G01X29043Y44136D01*
G01X28964Y44052D01*
G01X28924Y44009D01*
G01X28846Y43924D01*
G01X28807Y43881D01*
G01X28769Y43837D01*
G01X28730Y43794D01*
G01X28655Y43706D01*
G01X28581Y43618D01*
G01X28507Y43528D01*
G01X28471Y43484D01*
G01X28399Y43393D01*
G01X28364Y43348D01*
G01X28224Y43164D01*
G01X28190Y43118D01*
G01X28156Y43071D01*
G01X28057Y42930D01*
G01X28024Y42882D01*
G01X27991Y42835D01*
G01X27927Y42739D01*
G01X27833Y42594D01*
G01X27802Y42546D01*
G01X27772Y42496D01*
G01X27741Y42447D01*
G01X27711Y42398D01*
G01X27681Y42348D01*
G01X27652Y42299D01*
G01X27600Y42209D01*
G01X27553Y42126D01*
G01X27511Y42050D01*
G01X27475Y41979D01*
G01X27444Y41913D01*
G01X27418Y41852D01*
G01X27397Y41795D01*
G01X27382Y41741D01*
G01X27371Y41691D01*
G01X27365Y41642D01*
G01X27365Y41595D01*
G01X27370Y41548D01*
G01X27379Y41503D01*
G01X27393Y41456D01*
G01X27413Y41410D01*
G01X27437Y41361D01*
G01X27466Y41311D01*
G01X27500Y41258D01*
G01X27538Y41201D01*
G01X27581Y41141D01*
G01X27816Y40820D01*
G01X28117Y41374D01*
G01X28192Y41509D01*
G01X28270Y41644D01*
G01X28297Y41689D01*
G01X28324Y41733D01*
G01X28351Y41778D01*
G01X28378Y41822D01*
G01X28434Y41911D01*
G01X28491Y41999D01*
G01X28549Y42086D01*
G01X28609Y42174D01*
G01X28699Y42303D01*
G01X28761Y42390D01*
G01X28793Y42432D01*
G01X28889Y42560D01*
G01X28921Y42602D01*
G01X28954Y42645D01*
G01X28988Y42687D01*
G01X29021Y42729D01*
G01X29055Y42771D01*
G01X29123Y42854D01*
G01X29157Y42896D01*
G01X29192Y42938D01*
G01X29262Y43020D01*
G01X29298Y43062D01*
G01X29334Y43102D01*
G01X29370Y43143D01*
G01X29443Y43225D01*
G01X29517Y43305D01*
G01X29555Y43346D01*
G01X29707Y43506D01*
G01X29746Y43546D01*
G01X29864Y43664D01*
G01X29944Y43742D01*
G01X30025Y43820D01*
G01X30066Y43859D01*
G01X30107Y43897D01*
G01X30149Y43935D01*
G01X30190Y43974D01*
G01X30274Y44050D01*
G01X30360Y44126D01*
G01X30402Y44163D01*
G01X30445Y44201D01*
G01X30489Y44238D01*
G01X30533Y44276D01*
G01X30621Y44350D01*
G01X30710Y44423D01*
G01X30755Y44460D01*
G01X30800Y44496D01*
G01X30845Y44533D01*
G01X30983Y44641D01*
G01X31030Y44677D01*
G01X31076Y44713D01*
G01X31123Y44748D01*
G01X31218Y44819D01*
G01X31313Y44889D01*
G01X31507Y45027D01*
G01X31556Y45062D01*
G01X31655Y45130D01*
G01X31705Y45164D01*
G01X31755Y45197D01*
G01X31805Y45231D01*
G01X31856Y45264D01*
G01X31906Y45297D01*
G01X31957Y45331D01*
G01X32009Y45364D01*
G01X32060Y45396D01*
G01X32112Y45429D01*
G01X32215Y45494D01*
G01X32268Y45526D01*
G01X32320Y45559D01*
G01X32373Y45590D01*
G01X32479Y45654D01*
G01X32533Y45686D01*
G01X32587Y45717D01*
G01X32694Y45779D01*
G01X32804Y45841D01*
G01X32913Y45902D01*
G01X32969Y45933D01*
G01X33024Y45963D01*
G01X33192Y46053D01*
G01X33304Y46112D01*
G01X33418Y46170D01*
G01X33590Y46257D01*
G01X33648Y46285D01*
G01X33707Y46313D01*
G01X33765Y46342D01*
G01X33823Y46370D01*
G01X33941Y46426D01*
G01X34000Y46453D01*
G01X34119Y46508D01*
G01X34299Y46589D01*
G01X34420Y46642D01*
G01X34481Y46668D01*
G01X34602Y46720D01*
G01X34725Y46772D01*
G01X34911Y46847D01*
G01X35036Y46897D01*
G01X35099Y46922D01*
G01X35225Y46971D01*
G01X35289Y46995D01*
G01X35352Y47019D01*
G01X35416Y47042D01*
G01X35544Y47090D01*
G01X35608Y47113D01*
G01X35738Y47159D01*
G01X35802Y47182D01*
G01X35867Y47204D01*
G01X35933Y47227D01*
G01X35998Y47249D01*
G01X36262Y47337D01*
G01X36395Y47380D01*
G01X36462Y47400D01*
G01X36663Y47463D01*
G01X37003Y47563D01*
G01X37208Y47621D01*
G01X37416Y47677D01*
G01X37555Y47714D01*
G01X37695Y47750D01*
G01X37765Y47767D01*
G01X37835Y47785D01*
G01X37977Y47820D01*
G01X38047Y47836D01*
G01X38118Y47853D01*
G37*
G36*
G01X33792Y49433D02*
G01X33626Y49433D01*
G01X33567Y49432D01*
G01X33507Y49431D01*
G01X33445Y49430D01*
G01X33382Y49428D01*
G01X33318Y49426D01*
G01X33253Y49424D01*
G01X33121Y49418D01*
G01X33053Y49415D01*
G01X32984Y49412D01*
G01X32915Y49408D01*
G01X32776Y49399D01*
G01X32706Y49395D01*
G01X32635Y49390D01*
G01X32565Y49385D01*
G01X32424Y49374D01*
G01X32353Y49367D01*
G01X32213Y49355D01*
G01X32075Y49342D01*
G01X32006Y49334D01*
G01X31938Y49327D01*
G01X31872Y49319D01*
G01X31806Y49312D01*
G01X31741Y49304D01*
G01X31677Y49296D01*
G01X31614Y49287D01*
G01X31553Y49279D01*
G01X31404Y49257D01*
G01X31329Y49245D01*
G01X31254Y49232D01*
G01X31180Y49219D01*
G01X31105Y49205D01*
G01X31031Y49191D01*
G01X30957Y49175D01*
G01X30883Y49160D01*
G01X30737Y49128D01*
G01X30663Y49110D01*
G01X30590Y49093D01*
G01X30517Y49075D01*
G01X30445Y49056D01*
G01X30372Y49037D01*
G01X30301Y49017D01*
G01X30157Y48977D01*
G01X30086Y48956D01*
G01X29945Y48912D01*
G01X29875Y48890D01*
G01X29805Y48867D01*
G01X29736Y48844D01*
G01X29668Y48820D01*
G01X29599Y48796D01*
G01X29531Y48772D01*
G01X29464Y48747D01*
G01X29396Y48721D01*
G01X29330Y48696D01*
G01X29198Y48644D01*
G01X29133Y48617D01*
G01X29069Y48590D01*
G01X29005Y48562D01*
G01X28879Y48506D01*
G01X28817Y48477D01*
G01X28755Y48449D01*
G01X28694Y48420D01*
G01X28634Y48391D01*
G01X28457Y48301D01*
G01X28286Y48208D01*
G01X28176Y48146D01*
G01X28122Y48114D01*
G01X28070Y48082D01*
G01X28017Y48050D01*
G01X27965Y48018D01*
G01X27865Y47952D01*
G01X27816Y47919D01*
G01X27768Y47886D01*
G01X27674Y47820D01*
G01X27629Y47786D01*
G01X27584Y47753D01*
G01X27541Y47718D01*
G01X27498Y47684D01*
G01X27456Y47650D01*
G01X27376Y47582D01*
G01X27338Y47547D01*
G01X27300Y47513D01*
G01X27263Y47478D01*
G01X27228Y47444D01*
G01X27160Y47374D01*
G01X27128Y47339D01*
G01X27097Y47304D01*
G01X27067Y47269D01*
G01X27038Y47234D01*
G01X27010Y47199D01*
G01X26983Y47164D01*
G01X26958Y47129D01*
G01X26934Y47094D01*
G01X26911Y47059D01*
G01X26889Y47024D01*
G01X26849Y46954D01*
G01X26815Y46884D01*
G01X26800Y46850D01*
G01X26785Y46815D01*
G01X26773Y46780D01*
G01X26761Y46746D01*
G01X26751Y46711D01*
G01X26716Y46581D01*
G01X26685Y46467D01*
G01X26659Y46369D01*
G01X26639Y46286D01*
G01X26623Y46218D01*
G01X26612Y46162D01*
G01X26607Y46120D01*
G01X26606Y46089D01*
G01X26611Y46069D01*
G01X26621Y46059D01*
G01X26637Y46059D01*
G01X26658Y46067D01*
G01X26685Y46082D01*
G01X26717Y46105D01*
G01X26755Y46134D01*
G01X26799Y46167D01*
G01X26889Y46237D01*
G01X27073Y46373D01*
G01X27120Y46406D01*
G01X27166Y46439D01*
G01X27260Y46505D01*
G01X27354Y46570D01*
G01X27402Y46602D01*
G01X27449Y46633D01*
G01X27497Y46665D01*
G01X27545Y46696D01*
G01X27642Y46758D01*
G01X27690Y46789D01*
G01X27788Y46850D01*
G01X27836Y46880D01*
G01X27935Y46939D01*
G01X27985Y46968D01*
G01X28034Y46997D01*
G01X28084Y47026D01*
G01X28184Y47082D01*
G01X28285Y47138D01*
G01X28336Y47166D01*
G01X28387Y47193D01*
G01X28437Y47221D01*
G01X28489Y47248D01*
G01X28591Y47300D01*
G01X28643Y47327D01*
G01X28694Y47353D01*
G01X28747Y47379D01*
G01X28903Y47454D01*
G01X28956Y47479D01*
G01X29008Y47504D01*
G01X29167Y47576D01*
G01X29327Y47646D01*
G01X29381Y47669D01*
G01X29489Y47713D01*
G01X29543Y47736D01*
G01X29652Y47779D01*
G01X29707Y47801D01*
G01X29761Y47822D01*
G01X29871Y47864D01*
G01X29926Y47884D01*
G01X29982Y47904D01*
G01X30092Y47944D01*
G01X30148Y47964D01*
G01X30372Y48040D01*
G01X30485Y48076D01*
G01X30542Y48094D01*
G01X30599Y48111D01*
G01X30656Y48129D01*
G01X30770Y48163D01*
G01X30827Y48179D01*
G01X30884Y48196D01*
G01X31000Y48228D01*
G01X31057Y48244D01*
G01X31231Y48289D01*
G01X31348Y48318D01*
G01X31407Y48333D01*
G01X31465Y48346D01*
G01X31583Y48374D01*
G01X31760Y48413D01*
G01X31938Y48449D01*
G01X32058Y48473D01*
G01X32298Y48517D01*
G01X32479Y48547D01*
G01X32540Y48556D01*
G01X32601Y48566D01*
G01X32662Y48575D01*
G01X32784Y48592D01*
G01X32845Y48600D01*
G01X32968Y48617D01*
G01X33029Y48624D01*
G01X33152Y48638D01*
G01X33214Y48646D01*
G01X33524Y48676D01*
G01X33586Y48681D01*
G01X33711Y48691D01*
G01X33774Y48696D01*
G01X33837Y48700D01*
G01X33963Y48709D01*
G01X34089Y48715D01*
G01X34152Y48719D01*
G01X34215Y48721D01*
G01X34342Y48726D01*
G01X34469Y48730D01*
G01X34532Y48732D01*
G01X34852Y48737D01*
G01X34980Y48737D01*
G01X35045Y48736D01*
G01X35109Y48735D01*
G01X35238Y48733D01*
G01X35367Y48730D01*
G01X35497Y48726D01*
G01X35627Y48721D01*
G01X35822Y48712D01*
G01X35952Y48704D01*
G01X36018Y48700D01*
G01X36149Y48691D01*
G01X36280Y48681D01*
G01X36411Y48669D01*
G01X36477Y48663D01*
G01X36542Y48657D01*
G01X36675Y48644D01*
G01X36807Y48630D01*
G01X36873Y48622D01*
G01X36939Y48615D01*
G01X37071Y48598D01*
G01X37204Y48581D01*
G01X37271Y48572D01*
G01X37338Y48562D01*
G01X37404Y48553D01*
G01X37471Y48543D01*
G01X37537Y48533D01*
G01X37604Y48523D01*
G01X37671Y48512D01*
G01X37737Y48501D01*
G01X37871Y48479D01*
G01X38005Y48455D01*
G01X38572Y48353D01*
G01X38081Y48397D01*
G01X38001Y48404D01*
G01X37923Y48410D01*
G01X37767Y48423D01*
G01X37689Y48429D01*
G01X37535Y48440D01*
G01X37381Y48450D01*
G01X37229Y48460D01*
G01X37153Y48464D01*
G01X37003Y48472D01*
G01X36853Y48478D01*
G01X36779Y48482D01*
G01X36631Y48488D01*
G01X36557Y48490D01*
G01X36338Y48496D01*
G01X36266Y48498D01*
G01X36193Y48499D01*
G01X36122Y48500D01*
G01X36050Y48501D01*
G01X35907Y48502D01*
G01X35766Y48502D01*
G01X35555Y48500D01*
G01X35486Y48499D01*
G01X35279Y48495D01*
G01X35141Y48491D01*
G01X35073Y48488D01*
G01X35006Y48485D01*
G01X34938Y48483D01*
G01X34871Y48479D01*
G01X34737Y48472D01*
G01X34670Y48468D01*
G01X34604Y48464D01*
G01X34537Y48460D01*
G01X34472Y48455D01*
G01X34406Y48451D01*
G01X34341Y48445D01*
G01X34275Y48440D01*
G01X34210Y48435D01*
G01X34081Y48423D01*
G01X34017Y48416D01*
G01X33889Y48403D01*
G01X33762Y48389D01*
G01X33636Y48374D01*
G01X33511Y48358D01*
G01X33449Y48349D01*
G01X33387Y48341D01*
G01X33325Y48332D01*
G01X33264Y48322D01*
G01X33202Y48313D01*
G01X33080Y48294D01*
G01X32960Y48273D01*
G01X32899Y48263D01*
G01X32779Y48240D01*
G01X32720Y48229D01*
G01X32660Y48217D01*
G01X32601Y48206D01*
G01X32542Y48193D01*
G01X32484Y48181D01*
G01X32367Y48156D01*
G01X32308Y48143D01*
G01X32250Y48129D01*
G01X32193Y48116D01*
G01X32135Y48102D01*
G01X32021Y48074D01*
G01X31907Y48044D01*
G01X31794Y48014D01*
G01X31682Y47982D01*
G01X31571Y47950D01*
G01X31515Y47933D01*
G01X31460Y47917D01*
G01X31351Y47882D01*
G01X31296Y47864D01*
G01X31242Y47846D01*
G01X31187Y47828D01*
G01X31079Y47792D01*
G01X31026Y47773D01*
G01X30919Y47734D01*
G01X30866Y47714D01*
G01X30760Y47675D01*
G01X30707Y47654D01*
G01X30602Y47613D01*
G01X30551Y47591D01*
G01X30498Y47570D01*
G01X30447Y47549D01*
G01X30395Y47527D01*
G01X30293Y47482D01*
G01X30241Y47459D01*
G01X30190Y47437D01*
G01X30140Y47413D01*
G01X30089Y47390D01*
G01X30039Y47366D01*
G01X29988Y47343D01*
G01X29938Y47318D01*
G01X29888Y47294D01*
G01X29838Y47269D01*
G01X29789Y47244D01*
G01X29739Y47219D01*
G01X29494Y47089D01*
G01X29446Y47062D01*
G01X29397Y47035D01*
G01X29349Y47007D01*
G01X29301Y46980D01*
G01X29205Y46924D01*
G01X29158Y46896D01*
G01X29110Y46867D01*
G01X29063Y46838D01*
G01X29015Y46809D01*
G01X28969Y46779D01*
G01X28921Y46750D01*
G01X28828Y46690D01*
G01X28782Y46659D01*
G01X28735Y46628D01*
G01X28597Y46535D01*
G01X28505Y46471D01*
G01X28414Y46406D01*
G01X28324Y46340D01*
G01X28278Y46306D01*
G01X28234Y46273D01*
G01X28144Y46205D01*
G01X28055Y46136D01*
G01X27966Y46065D01*
G01X27922Y46030D01*
G01X27878Y45994D01*
G01X27791Y45922D01*
G01X27747Y45885D01*
G01X27674Y45824D01*
G01X27604Y45763D01*
G01X27537Y45705D01*
G01X27472Y45647D01*
G01X27409Y45591D01*
G01X27349Y45537D01*
G01X27292Y45483D01*
G01X27236Y45430D01*
G01X27184Y45379D01*
G01X27133Y45328D01*
G01X27039Y45230D01*
G01X26996Y45182D01*
G01X26954Y45135D01*
G01X26915Y45089D01*
G01X26878Y45043D01*
G01X26843Y44998D01*
G01X26810Y44952D01*
G01X26779Y44908D01*
G01X26750Y44864D01*
G01X26723Y44820D01*
G01X26698Y44777D01*
G01X26675Y44734D01*
G01X26653Y44691D01*
G01X26634Y44648D01*
G01X26616Y44604D01*
G01X26600Y44561D01*
G01X26586Y44518D01*
G01X26573Y44474D01*
G01X26562Y44431D01*
G01X26553Y44387D01*
G01X26545Y44342D01*
G01X26539Y44298D01*
G01X26534Y44252D01*
G01X26531Y44206D01*
G01X26529Y44159D01*
G01X26529Y44112D01*
G01X26530Y44064D01*
G01X26532Y44016D01*
G01X26540Y43916D01*
G01X26547Y43864D01*
G01X26554Y43811D01*
G01X26562Y43758D01*
G01X26608Y43485D01*
G01X27525Y44398D01*
G01X27648Y44518D01*
G01X27771Y44635D01*
G01X27813Y44674D01*
G01X27897Y44751D01*
G01X28067Y44903D01*
G01X28153Y44977D01*
G01X28197Y45014D01*
G01X28240Y45051D01*
G01X28284Y45087D01*
G01X28328Y45124D01*
G01X28372Y45160D01*
G01X28460Y45231D01*
G01X28595Y45336D01*
G01X28640Y45372D01*
G01X28730Y45440D01*
G01X28822Y45508D01*
G01X28961Y45609D01*
G01X29007Y45642D01*
G01X29054Y45674D01*
G01X29101Y45707D01*
G01X29195Y45771D01*
G01X29339Y45867D01*
G01X29386Y45898D01*
G01X29435Y45929D01*
G01X29483Y45960D01*
G01X29532Y45991D01*
G01X29580Y46021D01*
G01X29630Y46051D01*
G01X29678Y46081D01*
G01X29728Y46111D01*
G01X29777Y46141D01*
G01X29927Y46228D01*
G01X30078Y46313D01*
G01X30179Y46369D01*
G01X30282Y46424D01*
G01X30385Y46478D01*
G01X30436Y46505D01*
G01X30489Y46531D01*
G01X30540Y46558D01*
G01X30645Y46610D01*
G01X30698Y46635D01*
G01X30751Y46661D01*
G01X30910Y46736D01*
G01X30964Y46760D01*
G01X31017Y46785D01*
G01X31072Y46809D01*
G01X31126Y46833D01*
G01X31180Y46856D01*
G01X31289Y46903D01*
G01X31398Y46949D01*
G01X31565Y47016D01*
G01X31676Y47060D01*
G01X31788Y47102D01*
G01X31844Y47124D01*
G01X31901Y47144D01*
G01X31958Y47165D01*
G01X32072Y47205D01*
G01X32244Y47265D01*
G01X32476Y47341D01*
G01X32534Y47359D01*
G01X32711Y47413D01*
G01X32889Y47465D01*
G01X32948Y47482D01*
G01X33068Y47515D01*
G01X33128Y47531D01*
G01X33189Y47547D01*
G01X33249Y47563D01*
G01X33310Y47579D01*
G01X33493Y47624D01*
G01X33616Y47653D01*
G01X33677Y47668D01*
G01X33739Y47681D01*
G01X33801Y47696D01*
G01X33864Y47709D01*
G01X33926Y47723D01*
G01X33989Y47736D01*
G01X34051Y47748D01*
G01X34177Y47774D01*
G01X34431Y47822D01*
G01X34559Y47844D01*
G01X34624Y47855D01*
G01X34753Y47876D01*
G01X34817Y47887D01*
G01X34882Y47897D01*
G01X34947Y47906D01*
G01X35078Y47926D01*
G01X35209Y47944D01*
G01X35475Y47978D01*
G01X35608Y47993D01*
G01X35675Y48000D01*
G01X35742Y48008D01*
G01X35809Y48015D01*
G01X35876Y48021D01*
G01X35945Y48028D01*
G01X36012Y48034D01*
G01X36080Y48041D01*
G01X36216Y48052D01*
G01X36423Y48067D01*
G01X36491Y48073D01*
G01X36560Y48077D01*
G01X36630Y48081D01*
G01X36769Y48089D01*
G01X36839Y48093D01*
G01X36909Y48096D01*
G01X37049Y48103D01*
G01X37261Y48110D01*
G01X37474Y48116D01*
G01X37546Y48117D01*
G01X37689Y48119D01*
G01X37761Y48120D01*
G01X37905Y48121D01*
G01X38032Y48121D01*
G01X38084Y48122D01*
G01X38135Y48123D01*
G01X38184Y48123D01*
G01X38232Y48125D01*
G01X38278Y48126D01*
G01X38323Y48128D01*
G01X38366Y48130D01*
G01X38408Y48133D01*
G01X38447Y48136D01*
G01X38486Y48138D01*
G01X38523Y48141D01*
G01X38559Y48145D01*
G01X38593Y48148D01*
G01X38625Y48152D01*
G01X38656Y48156D01*
G01X38686Y48161D01*
G01X38714Y48166D01*
G01X38741Y48170D01*
G01X38766Y48175D01*
G01X38790Y48180D01*
G01X38813Y48186D01*
G01X38834Y48191D01*
G01X38853Y48198D01*
G01X38872Y48204D01*
G01X38889Y48210D01*
G01X38905Y48216D01*
G01X38919Y48223D01*
G01X38932Y48230D01*
G01X38944Y48237D01*
G01X38954Y48244D01*
G01X38963Y48252D01*
G01X38971Y48260D01*
G01X38978Y48268D01*
G01X38983Y48275D01*
G01X38987Y48283D01*
G01X38990Y48292D01*
G01X38992Y48300D01*
G01X38992Y48309D01*
G01X38991Y48318D01*
G01X38989Y48327D01*
G01X38986Y48336D01*
G01X38976Y48354D01*
G01X38962Y48374D01*
G01X38952Y48383D01*
G01X38942Y48394D01*
G01X38931Y48404D01*
G01X38919Y48414D01*
G01X38891Y48434D01*
G01X38859Y48456D01*
G01X38841Y48466D01*
G01X38803Y48488D01*
G01X38782Y48499D01*
G01X38738Y48521D01*
G01X38714Y48532D01*
G01X38689Y48544D01*
G01X38663Y48555D01*
G01X38609Y48579D01*
G01X38581Y48590D01*
G01X38551Y48601D01*
G01X38521Y48613D01*
G01X38490Y48625D01*
G01X38391Y48661D01*
G01X38356Y48673D01*
G01X38284Y48697D01*
G01X38170Y48733D01*
G01X38130Y48745D01*
G01X38089Y48757D01*
G01X38048Y48770D01*
G01X38006Y48782D01*
G01X37963Y48793D01*
G01X37920Y48806D01*
G01X37875Y48818D01*
G01X37831Y48830D01*
G01X37739Y48854D01*
G01X37692Y48867D01*
G01X37644Y48879D01*
G01X37596Y48890D01*
G01X37546Y48903D01*
G01X37497Y48915D01*
G01X37395Y48939D01*
G01X37292Y48962D01*
G01X37186Y48986D01*
G01X37077Y49009D01*
G01X37022Y49020D01*
G01X36966Y49032D01*
G01X36910Y49043D01*
G01X36853Y49055D01*
G01X36796Y49066D01*
G01X36681Y49089D01*
G01X36622Y49100D01*
G01X36563Y49110D01*
G01X36383Y49143D01*
G01X36322Y49153D01*
G01X36261Y49164D01*
G01X36075Y49194D01*
G01X36012Y49204D01*
G01X35948Y49214D01*
G01X35821Y49233D01*
G01X35757Y49242D01*
G01X35692Y49252D01*
G01X35497Y49279D01*
G01X35431Y49288D01*
G01X35299Y49304D01*
G01X35232Y49313D01*
G01X35165Y49321D01*
G01X35099Y49328D01*
G01X35031Y49336D01*
G01X34964Y49344D01*
G01X34897Y49351D01*
G01X34828Y49358D01*
G01X34761Y49365D01*
G01X34693Y49372D01*
G01X34624Y49379D01*
G01X34556Y49385D01*
G01X34419Y49397D01*
G01X34350Y49403D01*
G01X34074Y49423D01*
G01X34032Y49426D01*
G01X33989Y49428D01*
G01X33943Y49430D01*
G01X33895Y49431D01*
G01X33844Y49432D01*
G01X33792Y49433D01*
G37*

%LPD*%
M00*
M02*
