G04 Layer: TopSolderMaskLayer*
G04 EasyEDA v6.2.46, 2019-12-15T16:49:01--8:00*
G04 3ed96cd0468347919694e972acbd498c,95dd31e7bbc04d03a1fa04b442bf807f,10*
G04 Gerber Generator version 0.2*
G04 Scale: 100 percent, Rotated: No, Reflected: No *
G04 Dimensions in millimeters *
G04 leading zeros omitted , absolute positions ,3 integer and 3 decimal *
%FSLAX33Y33*%
%MOMM*%
G90*
G71D02*

%ADD34C,1.103198*%
%ADD35C,1.676400*%
%ADD37C,2.082800*%
%ADD40C,1.727200*%
%ADD43C,1.778000*%
%ADD46C,2.003196*%

%LPD*%
G54D34*
G01X29176Y97155D02*
G01X31276Y97155D01*
G01X29176Y95653D02*
G01X31276Y95653D01*
G01X29176Y94155D02*
G01X31276Y94155D01*
G01X34426Y97155D02*
G01X36526Y97155D01*
G01X34426Y95653D02*
G01X36526Y95653D01*
G01X34426Y94155D02*
G01X36526Y94155D01*
G54D35*
G01X61947Y77979D03*
G01X59407Y77979D03*
G01X56867Y77979D03*
G01X54327Y77979D03*
G01X51787Y77979D03*
G01X49247Y77979D03*
G01X46707Y77979D03*
G01X44167Y77979D03*
G01X41627Y77979D03*
G01X39087Y77979D03*
G01X36547Y77979D03*
G01X34007Y77979D03*
G01X31467Y77979D03*
G01X28927Y77979D03*
G01X23847Y77979D03*
G01X21307Y77979D03*
G01X18767Y77979D03*
G01X16227Y77979D03*
G01X28927Y62739D03*
G01X31467Y62739D03*
G01X34007Y62739D03*
G01X36547Y62739D03*
G01X39087Y62739D03*
G01X41627Y62739D03*
G01X44167Y62739D03*
G01X46707Y62739D03*
G01X49247Y62739D03*
G01X51787Y62739D03*
G01X54327Y62739D03*
G01X56867Y62739D03*
G01X59407Y62739D03*
G01X61947Y62739D03*
G01X59407Y65279D03*
G01X54327Y65279D03*
G01X51787Y65279D03*
G01X49247Y65279D03*
G01X26387Y77979D03*
G01X16227Y62739D03*
G01X18767Y62739D03*
G01X21307Y62739D03*
G01X23847Y62739D03*
G01X26387Y62739D03*
G01X13687Y77979D03*
G01X11147Y77979D03*
G01X8607Y77979D03*
G01X6067Y77979D03*
G01X3527Y77979D03*
G01X3527Y62739D03*
G01X13687Y62739D03*
G01X11147Y62739D03*
G01X8607Y62739D03*
G01X6067Y62739D03*
G36*
G01X24353Y31351D02*
G01X24353Y32656D01*
G01X25554Y32656D01*
G01X25554Y31351D01*
G01X24353Y31351D01*
G37*
G36*
G01X25753Y31351D02*
G01X25753Y32656D01*
G01X26954Y32656D01*
G01X26954Y31351D01*
G01X25753Y31351D01*
G37*
G54D37*
G01X30149Y18415D03*
G01X36652Y18415D03*
G01X35179Y7366D03*
G01X35179Y4826D03*
G01X35179Y2286D03*
G01X31496Y7366D03*
G01X31496Y4826D03*
G01X31496Y2286D03*
G36*
G01X2049Y52397D02*
G01X2049Y58600D01*
G01X8752Y58600D01*
G01X8752Y52397D01*
G01X2049Y52397D01*
G37*
G36*
G01X11033Y52298D02*
G01X11033Y54102D01*
G01X14236Y54102D01*
G01X14236Y52298D01*
G01X11033Y52298D01*
G37*
G36*
G01X11026Y56896D02*
G01X11026Y58699D01*
G01X14231Y58699D01*
G01X14231Y56896D01*
G01X11026Y56896D01*
G37*
G54D40*
G01X52070Y34798D03*
G01X52070Y32258D03*
G01X52070Y29718D03*
G01X52070Y27178D03*
G01X52070Y24638D03*
G01X52070Y22098D03*
G36*
G01X59517Y47307D02*
G01X59517Y48958D01*
G01X60878Y48958D01*
G01X60878Y47307D01*
G01X59517Y47307D01*
G37*
G36*
G01X61549Y47307D02*
G01X61549Y48958D01*
G01X62910Y48958D01*
G01X62910Y47307D01*
G01X61549Y47307D01*
G37*
G36*
G01X59644Y28892D02*
G01X59644Y30543D01*
G01X61005Y30543D01*
G01X61005Y28892D01*
G01X59644Y28892D01*
G37*
G36*
G01X61676Y28892D02*
G01X61676Y30543D01*
G01X63037Y30543D01*
G01X63037Y28892D01*
G01X61676Y28892D01*
G37*
G36*
G01X2621Y28892D02*
G01X2621Y30543D01*
G01X3982Y30543D01*
G01X3982Y28892D01*
G01X2621Y28892D01*
G37*
G36*
G01X4653Y28892D02*
G01X4653Y30543D01*
G01X6014Y30543D01*
G01X6014Y28892D01*
G01X4653Y28892D01*
G37*
G36*
G01X31196Y88836D02*
G01X31196Y90487D01*
G01X32557Y90487D01*
G01X32557Y88836D01*
G01X31196Y88836D01*
G37*
G36*
G01X33228Y88836D02*
G01X33228Y90487D01*
G01X34589Y90487D01*
G01X34589Y88836D01*
G01X33228Y88836D01*
G37*
G36*
G01X24353Y28938D02*
G01X24353Y30243D01*
G01X25554Y30243D01*
G01X25554Y28938D01*
G01X24353Y28938D01*
G37*
G36*
G01X25753Y28938D02*
G01X25753Y30243D01*
G01X26954Y30243D01*
G01X26954Y28938D01*
G01X25753Y28938D01*
G37*
G36*
G01X43434Y82804D02*
G01X43434Y84582D01*
G01X45212Y84582D01*
G01X45212Y82804D01*
G01X43434Y82804D01*
G37*
G54D43*
G01X46863Y83693D03*
G01X49403Y83693D03*
G01X51943Y83693D03*
G01X54483Y83693D03*
G01X57023Y83693D03*
G01X59563Y83693D03*
G01X62103Y83693D03*
G36*
G01X30180Y28595D02*
G01X30180Y31346D01*
G01X31798Y31346D01*
G01X31798Y28595D01*
G01X30180Y28595D01*
G37*
G36*
G01X32720Y28595D02*
G01X32720Y31346D01*
G01X34338Y31346D01*
G01X34338Y28595D01*
G01X32720Y28595D01*
G37*
G36*
G01X35260Y28595D02*
G01X35260Y31346D01*
G01X36878Y31346D01*
G01X36878Y28595D01*
G01X35260Y28595D01*
G37*
G36*
G01X56342Y10307D02*
G01X56342Y13058D01*
G01X57960Y13058D01*
G01X57960Y10307D01*
G01X56342Y10307D01*
G37*
G36*
G01X58882Y10307D02*
G01X58882Y13058D01*
G01X60500Y13058D01*
G01X60500Y10307D01*
G01X58882Y10307D01*
G37*
G36*
G01X61422Y10307D02*
G01X61422Y13058D01*
G01X63040Y13058D01*
G01X63040Y10307D01*
G01X61422Y10307D01*
G37*
G36*
G01X2621Y10307D02*
G01X2621Y13058D01*
G01X4239Y13058D01*
G01X4239Y10307D01*
G01X2621Y10307D01*
G37*
G36*
G01X5161Y10307D02*
G01X5161Y13058D01*
G01X6779Y13058D01*
G01X6779Y10307D01*
G01X5161Y10307D01*
G37*
G36*
G01X7701Y10307D02*
G01X7701Y13058D01*
G01X9319Y13058D01*
G01X9319Y10307D01*
G01X7701Y10307D01*
G37*
G36*
G01X31323Y85407D02*
G01X31323Y87058D01*
G01X32684Y87058D01*
G01X32684Y85407D01*
G01X31323Y85407D01*
G37*
G36*
G01X33355Y85407D02*
G01X33355Y87058D01*
G01X34716Y87058D01*
G01X34716Y85407D01*
G01X33355Y85407D01*
G37*
G36*
G01X31323Y81724D02*
G01X31323Y83375D01*
G01X32684Y83375D01*
G01X32684Y81724D01*
G01X31323Y81724D01*
G37*
G36*
G01X33355Y81724D02*
G01X33355Y83375D01*
G01X34716Y83375D01*
G01X34716Y81724D01*
G01X33355Y81724D01*
G37*
G36*
G01X59517Y50609D02*
G01X59517Y52260D01*
G01X60878Y52260D01*
G01X60878Y50609D01*
G01X59517Y50609D01*
G37*
G36*
G01X61549Y50609D02*
G01X61549Y52260D01*
G01X62910Y52260D01*
G01X62910Y50609D01*
G01X61549Y50609D01*
G37*
G36*
G01X59644Y32067D02*
G01X59644Y33718D01*
G01X61005Y33718D01*
G01X61005Y32067D01*
G01X59644Y32067D01*
G37*
G36*
G01X61676Y32067D02*
G01X61676Y33718D01*
G01X63037Y33718D01*
G01X63037Y32067D01*
G01X61676Y32067D01*
G37*
G36*
G01X2621Y32194D02*
G01X2621Y33845D01*
G01X3982Y33845D01*
G01X3982Y32194D01*
G01X2621Y32194D01*
G37*
G36*
G01X4653Y32194D02*
G01X4653Y33845D01*
G01X6014Y33845D01*
G01X6014Y32194D01*
G01X4653Y32194D01*
G37*
G36*
G01X2202Y36857D02*
G01X2202Y39441D01*
G01X6690Y39441D01*
G01X6690Y36857D01*
G01X2202Y36857D01*
G37*
G36*
G01X2202Y41836D02*
G01X2202Y44419D01*
G01X6690Y44419D01*
G01X6690Y41836D01*
G01X2202Y41836D01*
G37*
G36*
G01X58968Y41709D02*
G01X58968Y44292D01*
G01X63459Y44292D01*
G01X63459Y41709D01*
G01X58968Y41709D01*
G37*
G36*
G01X58968Y36730D02*
G01X58968Y39314D01*
G01X63459Y39314D01*
G01X63459Y36730D01*
G01X58968Y36730D01*
G37*
G36*
G01X59095Y23294D02*
G01X59095Y25877D01*
G01X63586Y25877D01*
G01X63586Y23294D01*
G01X59095Y23294D01*
G37*
G36*
G01X59095Y18315D02*
G01X59095Y20899D01*
G01X63586Y20899D01*
G01X63586Y18315D01*
G01X59095Y18315D01*
G37*
G36*
G01X2075Y18315D02*
G01X2075Y20899D01*
G01X6563Y20899D01*
G01X6563Y18315D01*
G01X2075Y18315D01*
G37*
G36*
G01X2075Y23294D02*
G01X2075Y25877D01*
G01X6563Y25877D01*
G01X6563Y23294D01*
G01X2075Y23294D01*
G37*
G54D46*
G01X7443Y87884D03*
G01X7443Y85384D03*
G01X10844Y90383D03*
G01X10844Y87884D03*
G01X10844Y85384D03*
G01X7443Y90383D03*
M00*
M02*
