G04 Layer: BottomLayer*
G04 EasyEDA v6.2.46, 2019-12-15T16:49:01--8:00*
G04 3ed96cd0468347919694e972acbd498c,95dd31e7bbc04d03a1fa04b442bf807f,10*
G04 Gerber Generator version 0.2*
G04 Scale: 100 percent, Rotated: No, Reflected: No *
G04 Dimensions in millimeters *
G04 leading zeros omitted , absolute positions ,3 integer and 3 decimal *
%FSLAX33Y33*%
%MOMM*%
G90*
G71D02*

%ADD11C,0.699999*%
%ADD13C,0.610006*%
%ADD18C,1.473200*%
%ADD19C,1.879600*%
%ADD20C,1.524000*%
%ADD21R,1.574800X1.574800*%
%ADD22C,1.574800*%
%ADD23R,1.414780X2.547620*%
%ADD24R,4.284980X2.379980*%
%ADD25C,1.799996*%

%LPD*%
G54D11*
G01X61948Y62738D02*
G01X60698Y63987D01*
G01X48714Y63987D01*
G01X47978Y63251D01*
G01X47978Y62151D01*
G01X47317Y61490D01*
G01X28326Y61490D01*
G01X27658Y62158D01*
G01X27658Y63474D01*
G01X26990Y64142D01*
G01X23454Y64142D01*
G01X22578Y63266D01*
G01X22578Y62156D01*
G01X17924Y57503D01*
G01X15262Y57503D01*
G01X31369Y889D02*
G01X35052Y889D01*
G01X36068Y29972D02*
G01X36068Y31945D01*
G01X52070Y32258D02*
G01X36380Y32258D01*
G01X36068Y31945D01*
G01X4445Y38150D02*
G01X1602Y38150D01*
G01X35179Y4826D02*
G01X42222Y4826D01*
G01X42222Y4826D02*
G01X56527Y19133D01*
G01X58498Y19608D02*
G01X58021Y19133D01*
G01X56527Y19133D01*
G01X31496Y4826D02*
G01X35179Y4826D01*
G01X7162Y24587D02*
G01X26924Y4826D01*
G01X31496Y4826D01*
G01X4318Y24587D02*
G01X7162Y24587D01*
G01X61341Y19608D02*
G01X58498Y19608D01*
G01X51943Y83693D02*
G01X50518Y82268D01*
G01X50518Y71628D01*
G01X41628Y62738D01*
G01X32738Y84853D02*
G01X39832Y84853D01*
G01X46708Y77978D01*
G01X44168Y77978D02*
G01X41724Y80421D01*
G01X30911Y80421D01*
G01X8608Y77978D02*
G01X21440Y65145D01*
G01X28691Y65145D01*
G01X30218Y63619D01*
G01X56916Y24881D02*
G01X60325Y28293D01*
G01X30988Y27995D02*
G01X38267Y20718D01*
G01X52753Y20718D01*
G01X56916Y24881D01*
G01X56916Y24881D02*
G01X58915Y22885D01*
G01X62290Y22885D01*
G01X63995Y21178D01*
G01X63995Y18110D01*
G01X59545Y13657D01*
G01X57150Y13657D01*
G01X57150Y11684D02*
G01X57150Y13657D01*
G01X3429Y11684D02*
G01X3429Y13657D01*
G01X3429Y13657D02*
G01X1663Y15425D01*
G01X1663Y26085D01*
G01X3576Y27995D01*
G01X30988Y27995D01*
G01X30988Y29972D02*
G01X30988Y27995D01*
G01X49403Y83693D02*
G01X47998Y82288D01*
G01X47998Y77444D01*
G01X46911Y76360D01*
G01X44764Y76360D01*
G01X44323Y83693D02*
G01X42834Y83693D01*
G01X42834Y83693D02*
G01X40769Y85758D01*
G01X32369Y85758D01*
G01X26388Y79776D01*
G01X26388Y77978D01*
G01X33528Y31945D02*
G01X48778Y47195D01*
G01X63322Y47195D01*
G01X33528Y29972D02*
G01X33528Y31945D01*
G01X49248Y62738D02*
G01X49248Y51457D01*
G01X29768Y31978D01*
G01X35179Y7366D02*
G01X28567Y13977D01*
G01X10843Y90383D02*
G01X9144Y88684D01*
G01X9144Y83146D01*
G01X4798Y78798D01*
G01X4798Y52019D01*
G01X1602Y48823D01*
G01X1602Y38150D01*
G54D18*
G01X61947Y77979D03*
G01X59407Y77979D03*
G01X56867Y77979D03*
G01X54327Y77979D03*
G01X51787Y77979D03*
G01X49247Y77979D03*
G01X46707Y77979D03*
G01X44167Y77979D03*
G01X41627Y77979D03*
G01X39087Y77979D03*
G01X36547Y77979D03*
G01X34007Y77979D03*
G01X31467Y77979D03*
G01X28927Y77979D03*
G01X23847Y77979D03*
G01X21307Y77979D03*
G01X18767Y77979D03*
G01X16227Y77979D03*
G01X28927Y62739D03*
G01X31467Y62739D03*
G01X34007Y62739D03*
G01X36547Y62739D03*
G01X39087Y62739D03*
G01X41627Y62739D03*
G01X44167Y62739D03*
G01X46707Y62739D03*
G01X49247Y62739D03*
G01X51787Y62739D03*
G01X54327Y62739D03*
G01X56867Y62739D03*
G01X59407Y62739D03*
G01X61947Y62739D03*
G01X59407Y65279D03*
G01X54327Y65279D03*
G01X51787Y65279D03*
G01X49247Y65279D03*
G01X26387Y77979D03*
G01X16227Y62739D03*
G01X18767Y62739D03*
G01X21307Y62739D03*
G01X23847Y62739D03*
G01X26387Y62739D03*
G01X13687Y77979D03*
G01X11147Y77979D03*
G01X8607Y77979D03*
G01X6067Y77979D03*
G01X3527Y77979D03*
G01X3527Y62739D03*
G01X13687Y62739D03*
G01X11147Y62739D03*
G01X8607Y62739D03*
G01X6067Y62739D03*
G54D19*
G01X30149Y18415D03*
G01X36652Y18415D03*
G01X35179Y7366D03*
G01X35179Y4826D03*
G01X35179Y2286D03*
G01X31496Y7366D03*
G01X31496Y4826D03*
G01X31496Y2286D03*
G54D20*
G01X52070Y34798D03*
G01X52070Y32258D03*
G01X52070Y29718D03*
G01X52070Y27178D03*
G01X52070Y24638D03*
G01X52070Y22098D03*
G54D21*
G01X44323Y83693D03*
G54D22*
G01X46863Y83693D03*
G01X49403Y83693D03*
G01X51943Y83693D03*
G01X54483Y83693D03*
G01X57023Y83693D03*
G01X59563Y83693D03*
G01X62103Y83693D03*
G54D23*
G01X30988Y29972D03*
G01X33528Y29972D03*
G01X36068Y29972D03*
G01X57150Y11684D03*
G01X59690Y11684D03*
G01X62230Y11684D03*
G01X3429Y11684D03*
G01X5969Y11684D03*
G01X8509Y11684D03*
G54D24*
G01X4445Y38150D03*
G01X4445Y43129D03*
G01X61214Y43002D03*
G01X61214Y38023D03*
G01X61341Y24587D03*
G01X61341Y19608D03*
G01X4318Y19608D03*
G01X4318Y24587D03*
G54D25*
G01X7443Y87884D03*
G01X7443Y85384D03*
G01X10844Y90383D03*
G01X10844Y87884D03*
G01X10844Y85384D03*
G01X7443Y90383D03*
G54D13*
G01X15262Y57503D03*
G01X56527Y19133D03*
G01X32738Y84853D03*
G01X30911Y80421D03*
G01X30218Y63619D03*
G01X60325Y28293D03*
G01X44764Y76360D03*
G01X63322Y47195D03*
G01X29768Y31978D03*
G01X28567Y13977D03*
M00*
M02*
