;Layer: Drill PTH
;EasyEDA v6.2.46, 2019-12-15T16:49:01--8:00
;3ed96cd0468347919694e972acbd498c,95dd31e7bbc04d03a1fa04b442bf807f,10
;Gerber Generator version 0.2
M48
METRIC,LZ,000.000
;Holesize 1 = 0.310 METRIC
T01C0.310
;Holesize 2 = 0.889 METRIC
T02C0.889
;Holesize 3 = 0.900 METRIC
T03C0.900
;Holesize 4 = 0.915 METRIC
T04C0.915
;Holesize 5 = 0.966 METRIC
T05C0.966
;Holesize 6 = 1.016 METRIC
T06C1.016
;Holesize 7 = 1.200 METRIC
T07C1.200
;Holesize 8 = 1.403 METRIC
T08C1.403
%
G05
G90
T01
X+015262Y+057503
X+056527Y+019133
X+032738Y+084853
X+030911Y+080421
X+030218Y+063619
X+060325Y+028293
X+044764Y+076360
X+063322Y+047195
X+029768Y+031978
X+028567Y+013977
T02
X+044323Y+083693
X+046863Y+083693
X+049403Y+083693
X+051943Y+083693
X+054483Y+083693
X+057023Y+083693
X+059563Y+083693
X+062103Y+083693
T03
X+030149Y+018415
X+036652Y+018415
T04
X+052070Y+034798
X+052070Y+032258
X+052070Y+029718
X+052070Y+027178
X+052070Y+024638
X+052070Y+022098
T05
X+061947Y+077981G85X+061947Y+077976
X+059407Y+077981G85X+059407Y+077976
X+056867Y+077981G85X+056867Y+077976
X+054327Y+077981G85X+054327Y+077976
X+051787Y+077981G85X+051787Y+077976
X+049247Y+077981G85X+049247Y+077976
X+046707Y+077981G85X+046707Y+077976
X+044167Y+077981G85X+044167Y+077976
X+041627Y+077981G85X+041627Y+077976
X+039087Y+077981G85X+039087Y+077976
X+036547Y+077981G85X+036547Y+077976
X+034007Y+077981G85X+034007Y+077976
X+031467Y+077981G85X+031467Y+077976
X+028927Y+077981G85X+028927Y+077976
X+023847Y+077981G85X+023847Y+077976
X+021307Y+077981G85X+021307Y+077976
X+018767Y+077981G85X+018767Y+077976
X+016227Y+077981G85X+016227Y+077976
X+028927Y+062741G85X+028927Y+062736
X+031467Y+062741G85X+031467Y+062736
X+034007Y+062741G85X+034007Y+062736
X+036547Y+062741G85X+036547Y+062736
X+039087Y+062741G85X+039087Y+062736
X+041627Y+062741G85X+041627Y+062736
X+044167Y+062741G85X+044167Y+062736
X+046707Y+062741G85X+046707Y+062736
X+049247Y+062741G85X+049247Y+062736
X+051787Y+062741G85X+051787Y+062736
X+054327Y+062741G85X+054327Y+062736
X+056867Y+062741G85X+056867Y+062736
X+059407Y+062741G85X+059407Y+062736
X+061947Y+062741G85X+061947Y+062736
X+059407Y+065281G85X+059407Y+065276
X+054327Y+065281G85X+054327Y+065276
X+051787Y+065281G85X+051787Y+065276
X+049247Y+065281G85X+049247Y+065276
X+026387Y+077981G85X+026387Y+077976
X+016227Y+062741G85X+016227Y+062736
X+018767Y+062741G85X+018767Y+062736
X+021307Y+062741G85X+021307Y+062736
X+023847Y+062741G85X+023847Y+062736
X+026387Y+062741G85X+026387Y+062736
X+013687Y+077981G85X+013687Y+077976
X+011147Y+077981G85X+011147Y+077976
X+008607Y+077981G85X+008607Y+077976
X+006067Y+077981G85X+006067Y+077976
X+003527Y+077981G85X+003527Y+077976
X+003527Y+062741G85X+003527Y+062736
X+013687Y+062741G85X+013687Y+062736
X+011147Y+062741G85X+011147Y+062736
X+008607Y+062741G85X+008607Y+062736
X+006067Y+062741G85X+006067Y+062736
T06
X+035179Y+007366
X+035179Y+004826
X+035179Y+002286
X+031496Y+007366
X+031496Y+004826
X+031496Y+002286
X+030988Y+029972
X+033528Y+029972
X+036068Y+029972
X+057150Y+011684
X+059690Y+011684
X+062230Y+011684
X+003429Y+011684
X+005969Y+011684
X+008509Y+011684
T07
X+007443Y+087884
X+007443Y+085384
X+010844Y+090383
X+010844Y+087884
X+010844Y+085384
X+007443Y+090383
T08
X+004445Y+038150
X+004445Y+043129
X+061214Y+043002
X+061214Y+038023
X+061341Y+024587
X+061341Y+019608
X+004318Y+019608
X+004318Y+024587
M30
