G04 Layer: TopPasteMaskLayer*
G04 EasyEDA v6.2.46, 2019-12-15T16:49:01--8:00*
G04 3ed96cd0468347919694e972acbd498c,95dd31e7bbc04d03a1fa04b442bf807f,10*
G04 Gerber Generator version 0.2*
G04 Scale: 100 percent, Rotated: No, Reflected: No *
G04 Dimensions in millimeters *
G04 leading zeros omitted , absolute positions ,3 integer and 3 decimal *
%FSLAX33Y33*%
%MOMM*%
G90*
G71D02*

%ADD12C,0.899998*%
%ADD14R,0.999998X1.099998*%
%ADD15R,6.499987X6.000013*%
%ADD16R,2.999994X1.599997*%
%ADD17R,1.160018X1.450010*%

%LPD*%
G54D12*
G01X29176Y97155D02*
G01X31276Y97155D01*
G01X29176Y95653D02*
G01X31276Y95653D01*
G01X29176Y94155D02*
G01X31276Y94155D01*
G01X34426Y97155D02*
G01X36526Y97155D01*
G01X34426Y95653D02*
G01X36526Y95653D01*
G01X34426Y94155D02*
G01X36526Y94155D01*
G54D14*
G01X24953Y32004D03*
G01X26354Y32004D03*
G54D15*
G01X5400Y55499D03*
G54D16*
G01X12633Y53199D03*
G36*
G01X11126Y56998D02*
G01X11126Y58598D01*
G01X14128Y58598D01*
G01X14128Y56998D01*
G01X11126Y56998D01*
G37*
G54D17*
G01X60198Y48133D03*
G01X62230Y48133D03*
G01X60325Y29718D03*
G01X62357Y29718D03*
G01X3302Y29718D03*
G01X5334Y29718D03*
G01X31877Y89662D03*
G01X33909Y89662D03*
G54D14*
G01X24953Y29591D03*
G01X26354Y29591D03*
G54D17*
G01X32004Y86233D03*
G01X34036Y86233D03*
G01X32004Y82550D03*
G01X34036Y82550D03*
G01X60198Y51435D03*
G01X62230Y51435D03*
G01X60325Y32893D03*
G01X62357Y32893D03*
G01X3302Y33020D03*
G01X5334Y33020D03*
M00*
M02*
